<svg xmlns="http://www.w3.org/2000/svg" viewBox="0 0 24 24" width="24" height="24" fill="currentColor">
  <path d="M11.66 2.34a10 10 0 1 0 0 19.32a10 10 0 0 0 0-19.32zm-1.896 11.2a1 1 0 0 1-1.414 0L5.944 12.1a1 1 0 0 1 1.414-1.414l2.404 2.404zm3.672-1.298a1 1 0 0 1 0 1.414L14.346 14.7a1 1 0 0 1-1.414 0l-2.404-2.404zm-1.896-1.298a1 1 0 0 1 1.414 0l2.404 2.404a1 1 0 0 1-1.414 1.414L11.66 12.1zm-1.896-1.298a1 1 0 0 1 0-1.414L8.104 8.79a1 1 0 0 1 1.414 1.414L11.66 12.1zm-1.896-1.298a1 1 0 0 1 1.414 0L14.346 10.59a1 1 0 0 1-1.414 1.414l-2.404-2.404zm-1.896 1.298a1 1 0 0 1 0-1.414L5.944 10.59a1 1 0 0 1 1.414 0L9.824 12.1z"/>
</svg>